<svg width="101" height="100" viewBox="0 0 101 100" fill="none" xmlns="http://www.w3.org/2000/svg">
<path d="M0.180664 87.1059C0.180664 94.2277 5.95371 100 13.0748 100H87.2861C94.4084 100 100.181 94.227 100.181 87.1059V12.8945C100.181 5.77226 94.4076 0 87.2865 0H13.0752C5.95293 0 0.180664 5.77305 0.180664 12.8941V87.1055V87.1059Z" fill="#563D7C"/>
<path d="M41.6487 44.2336V30.0723H54.1139C55.3014 30.0723 56.446 30.1711 57.5483 30.3691C58.6507 30.5668 59.6261 30.9199 60.4741 31.4289C61.3218 31.9379 62.0003 32.6445 62.5093 33.5488C63.0179 34.4535 63.2725 35.6125 63.2725 37.0254C63.2725 39.5695 62.5093 41.407 60.9827 42.5375C59.4565 43.6684 57.5061 44.2336 55.1315 44.2336H41.6487ZM28.335 19.7266V80.2734H57.6757C60.3893 80.2734 63.0323 79.9344 65.6046 79.2559C68.1769 78.5773 70.4663 77.5316 72.4733 76.1184C74.48 74.7051 76.0773 72.8816 77.2644 70.6488C78.4519 68.4156 79.0452 65.7727 79.0452 62.7199C79.0452 58.932 78.1265 55.6957 76.2894 53.0105C74.4519 50.325 71.6675 48.4453 67.9362 47.3711C70.6499 46.0711 72.6995 44.4031 74.0847 42.368C75.4694 40.3328 76.162 37.7891 76.162 34.7359C76.162 31.9094 75.6956 29.5352 74.7628 27.6129C73.83 25.691 72.5155 24.1504 70.8194 22.9914C69.1237 21.8324 67.0886 20.9984 64.714 20.4898C62.3397 19.9809 59.7108 19.7266 56.8276 19.7266H28.335ZM41.6487 69.9277V53.307H56.1491C59.0323 53.307 61.3503 53.9711 63.103 55.3C64.8554 56.6285 65.7319 58.8473 65.7319 61.9566C65.7319 63.5398 65.4632 64.8398 64.9261 65.8574C64.389 66.875 63.6683 67.6809 62.7636 68.2742C61.8593 68.868 60.8132 69.2918 59.626 69.5465C58.4385 69.8004 57.1952 69.9277 55.8948 69.9277H41.6487Z" fill="white"/>
</svg>
