<svg width="20" height="15" viewBox="0 0 20 15" fill="none" xmlns="http://www.w3.org/2000/svg">
<path d="M6.66671 8.125C6.44569 8.125 6.23373 8.05915 6.07745 7.94194C5.92117 7.82473 5.83337 7.66576 5.83337 7.5C5.83337 7.33424 5.92117 7.17527 6.07745 7.05806C6.23373 6.94085 6.44569 6.875 6.66671 6.875C6.88772 6.875 7.09968 6.94085 7.25596 7.05806C7.41224 7.17527 7.50004 7.33424 7.50004 7.5C7.50004 7.66576 7.41224 7.82473 7.25596 7.94194C7.09968 8.05915 6.88772 8.125 6.66671 8.125V8.125ZM6.66671 10.625C6.44569 10.625 6.23373 10.5592 6.07745 10.4419C5.92117 10.3247 5.83337 10.1658 5.83337 10C5.83337 9.83424 5.92117 9.67527 6.07745 9.55806C6.23373 9.44085 6.44569 9.375 6.66671 9.375C6.88772 9.375 7.09968 9.44085 7.25596 9.55806C7.41224 9.67527 7.50004 9.83424 7.50004 10C7.50004 10.1658 7.41224 10.3247 7.25596 10.4419C7.09968 10.5592 6.88772 10.625 6.66671 10.625V10.625ZM9.16671 10C9.16671 10.1658 9.2545 10.3247 9.41079 10.4419C9.56707 10.5592 9.77903 10.625 10 10.625C10.2211 10.625 10.433 10.5592 10.5893 10.4419C10.7456 10.3247 10.8334 10.1658 10.8334 10C10.8334 9.83424 10.7456 9.67527 10.5893 9.55806C10.433 9.44085 10.2211 9.375 10 9.375C9.77903 9.375 9.56707 9.44085 9.41079 9.55806C9.2545 9.67527 9.16671 9.83424 9.16671 10ZM13.3334 10.625C13.1124 10.625 12.9004 10.5592 12.7441 10.4419C12.5878 10.3247 12.5 10.1658 12.5 10C12.5 9.83424 12.5878 9.67527 12.7441 9.55806C12.9004 9.44085 13.1124 9.375 13.3334 9.375C13.5544 9.375 13.7663 9.44085 13.9226 9.55806C14.0789 9.67527 14.1667 9.83424 14.1667 10C14.1667 10.1658 14.0789 10.3247 13.9226 10.4419C13.7663 10.5592 13.5544 10.625 13.3334 10.625ZM9.16671 7.5C9.16671 7.66576 9.2545 7.82473 9.41079 7.94194C9.56707 8.05915 9.77903 8.125 10 8.125C10.2211 8.125 10.433 8.05915 10.5893 7.94194C10.7456 7.82473 10.8334 7.66576 10.8334 7.5C10.8334 7.33424 10.7456 7.17527 10.5893 7.05806C10.433 6.94085 10.2211 6.875 10 6.875C9.77903 6.875 9.56707 6.94085 9.41079 7.05806C9.2545 7.17527 9.16671 7.33424 9.16671 7.5ZM13.3334 8.125C13.1124 8.125 12.9004 8.05915 12.7441 7.94194C12.5878 7.82473 12.5 7.66576 12.5 7.5C12.5 7.33424 12.5878 7.17527 12.7441 7.05806C12.9004 6.94085 13.1124 6.875 13.3334 6.875C13.5544 6.875 13.7663 6.94085 13.9226 7.05806C14.0789 7.17527 14.1667 7.33424 14.1667 7.5C14.1667 7.66576 14.0789 7.82473 13.9226 7.94194C13.7663 8.05915 13.5544 8.125 13.3334 8.125ZM6.66671 4.375C6.44569 4.375 6.23373 4.44085 6.07745 4.55806C5.92117 4.67527 5.83337 4.83424 5.83337 5C5.83337 5.16576 5.92117 5.32473 6.07745 5.44194C6.23373 5.55915 6.44569 5.625 6.66671 5.625H13.3334C13.5544 5.625 13.7663 5.55915 13.9226 5.44194C14.0789 5.32473 14.1667 5.16576 14.1667 5C14.1667 4.83424 14.0789 4.67527 13.9226 4.55806C13.7663 4.44085 13.5544 4.375 13.3334 4.375H6.66671Z" fill="#A7A7A7"/>
<path fill-rule="evenodd" clip-rule="evenodd" d="M5 1.875C4.33696 1.875 3.70107 2.07254 3.23223 2.42417C2.76339 2.77581 2.5 3.25272 2.5 3.75V11.25C2.5 11.7473 2.76339 12.2242 3.23223 12.5758C3.70107 12.9275 4.33696 13.125 5 13.125H15C15.663 13.125 16.2989 12.9275 16.7678 12.5758C17.2366 12.2242 17.5 11.7473 17.5 11.25V3.75C17.5 3.25272 17.2366 2.77581 16.7678 2.42417C16.2989 2.07254 15.663 1.875 15 1.875H5ZM15 3.125H5C4.77899 3.125 4.56702 3.19085 4.41074 3.30806C4.25446 3.42527 4.16667 3.58424 4.16667 3.75V11.25C4.16667 11.4158 4.25446 11.5747 4.41074 11.6919C4.56702 11.8092 4.77899 11.875 5 11.875H15C15.221 11.875 15.433 11.8092 15.5893 11.6919C15.7455 11.5747 15.8333 11.4158 15.8333 11.25V3.75C15.8333 3.58424 15.7455 3.42527 15.5893 3.30806C15.433 3.19085 15.221 3.125 15 3.125Z" fill="#A7A7A7"/>
</svg>
