<svg width="89" height="100" viewBox="0 0 89 100" fill="none" xmlns="http://www.w3.org/2000/svg">
<path d="M88.1808 0L80.1478 89.9895L44.0394 100L8.03031 90.0036L0.00585938 0H88.1808Z" fill="#264DE4"/>
<path d="M73.2707 84.2593L80.1354 7.35913H44.0933V92.3484L73.2707 84.2593Z" fill="#2965F1"/>
<path d="M18.4019 40.7402L19.3912 51.7787H44.0934V40.7402H18.4019Z" fill="#EBEBEB"/>
<path d="M44.0933 18.3977H44.0552H16.4138L17.4173 29.4364H44.0933V18.3977Z" fill="#EBEBEB"/>
<path d="M44.0933 80.8931V69.4083L44.0449 69.4212L31.7512 66.1016L30.9653 57.2979H24.9915H19.8843L21.4308 74.63L44.0425 80.9072L44.0933 80.8931Z" fill="#EBEBEB"/>
<path d="M57.648 51.7785L56.3667 66.0947L44.0552 69.4177V80.9019L66.6849 74.6301L66.8509 72.7652L69.4448 43.7042L69.7142 40.7401L71.707 18.3977H44.0552V29.4364H59.6096L58.6052 40.7401H44.0552V51.7785H57.648Z" fill="white"/>
</svg>
