<svg width="20" height="15" viewBox="0 0 20 15" fill="none" xmlns="http://www.w3.org/2000/svg">
<path d="M4.16663 1.875V13.125H9.16663V10.9375H10.8333V13.125H15.8333V1.875H4.16663ZM5.83329 3.125H7.49996V4.375H5.83329V3.125ZM9.16663 3.125H10.8333V4.375H9.16663V3.125ZM12.5 3.125H14.1666V4.375H12.5V3.125ZM5.83329 5.625H7.49996V6.875H5.83329V5.625ZM9.16663 5.625H10.8333V6.875H9.16663V5.625ZM12.5 5.625H14.1666V6.875H12.5V5.625ZM5.83329 8.125H7.49996V9.375H5.83329V8.125ZM9.16663 8.125H10.8333V9.375H9.16663V8.125ZM12.5 8.125H14.1666V9.375H12.5V8.125ZM5.83329 10.625H7.49996V11.875H5.83329V10.625ZM12.5 10.625H14.1666V11.875H12.5V10.625Z" fill="#A7A7A7"/>
</svg>
