<svg width="100" height="100" viewBox="0 0 100 100" fill="none" xmlns="http://www.w3.org/2000/svg">
<path d="M98.1141 45.5458L54.4531 1.88718C51.9402 -0.62727 47.8621 -0.62727 45.3461 1.88718L36.2797 10.9536L47.7809 22.4548C50.4535 21.5516 53.5184 22.1575 55.6488 24.288C57.7894 26.4321 58.391 29.5231 57.466 32.2044L68.55 43.2887C71.2316 42.3649 74.3258 42.9626 76.4676 45.1079C79.4609 48.1001 79.4609 52.9497 76.4676 55.9438C73.4734 58.9384 68.6238 58.9384 65.6281 55.9438C63.3766 53.6899 62.8203 50.3833 63.9602 47.6094L53.6234 37.2727L53.6223 64.4747C54.3716 64.8452 55.056 65.3346 55.6488 65.9239C58.6422 68.9161 58.6422 73.7661 55.6488 76.7626C52.6547 79.7555 47.8027 79.7555 44.8129 76.7626C41.8195 73.7661 41.8195 68.9165 44.8129 65.9243C45.5302 65.2066 46.3827 64.6382 47.3211 64.252V36.7966C46.3814 36.4129 45.5284 35.8442 44.8129 35.1243C42.5449 32.8594 41.9996 29.5317 43.1617 26.7469L31.8242 15.4083L1.88672 45.3438C-0.628906 47.8606 -0.628906 51.9391 1.88672 54.454L45.5484 98.1134C48.0621 100.628 52.1395 100.628 54.6562 98.1134L98.1137 54.6567C100.629 52.1411 100.629 48.0602 98.1141 45.5458Z" fill="#DE4C36"/>
</svg>
