<svg width="100" height="98" viewBox="0 0 100 98" fill="none" xmlns="http://www.w3.org/2000/svg">
<path d="M50.0002 0.234619C22.3894 0.234619 0 22.6201 0 50.2348C0 72.3266 14.3266 91.0687 34.1933 97.6802C36.692 98.1429 37.6096 96.5955 37.6096 95.2748C37.6096 94.0827 37.563 90.1436 37.5418 85.9657C23.6313 88.9903 20.6961 80.0663 20.6961 80.0663C18.4217 74.2869 15.1446 72.7505 15.1446 72.7505C10.6083 69.6471 15.4865 69.7106 15.4865 69.7106C20.5075 70.0635 23.1513 74.8633 23.1513 74.8633C27.6108 82.5074 34.8482 80.2973 37.7014 79.0201C38.15 75.788 39.4461 73.5826 40.8758 72.334C29.7703 71.0694 18.0954 66.7821 18.0954 47.6235C18.0954 42.1649 20.0487 37.7043 23.2474 34.2028C22.7282 32.9433 21.0169 27.858 23.7317 20.9707C23.7317 20.9707 27.9304 19.6269 37.4853 26.0961C41.4734 24.9879 45.7509 24.4326 50.0002 24.4138C54.2495 24.4326 58.5301 24.9879 62.526 26.0961C72.0696 19.6269 76.2624 20.9707 76.2624 20.9707C78.9839 27.858 77.2718 32.9433 76.7526 34.2028C79.9584 37.7043 81.8983 42.1645 81.8983 47.6235C81.8983 66.8276 70.2014 71.0564 59.0677 72.294C60.861 73.8457 62.459 76.8888 62.459 81.5533C62.459 88.2433 62.4009 93.6278 62.4009 95.2748C62.4009 96.6053 63.3009 98.1645 65.8357 97.6735C85.6915 91.0545 100 72.3191 100 50.2348C100 22.6201 77.6137 0.234619 50.0002 0.234619Z" fill="black"/>
<path d="M18.7266 71.4612C18.6168 71.7094 18.2255 71.7839 17.8698 71.6137C17.5071 71.4506 17.3032 71.1118 17.4208 70.8623C17.5286 70.6067 17.92 70.5353 18.282 70.7071C18.6455 70.8698 18.8525 71.2118 18.7266 71.4612ZM21.1862 73.6556C20.9477 73.8768 20.4815 73.774 20.165 73.4246C19.838 73.076 19.7768 72.6101 20.0188 72.3854C20.2646 72.1647 20.7168 72.2678 21.0446 72.6168C21.3717 72.9693 21.4352 73.4325 21.1858 73.656L21.1862 73.6556ZM22.8736 76.4633C22.5669 76.6763 22.0657 76.4767 21.7563 76.032C21.4501 75.5877 21.4501 75.0544 21.763 74.8406C22.0736 74.6269 22.5669 74.8191 22.8806 75.2602C23.1865 75.7124 23.1865 76.2457 22.8732 76.4637L22.8736 76.4633ZM25.7268 79.7154C25.4527 80.0173 24.8692 79.9365 24.4417 79.524C24.0049 79.1209 23.8829 78.5487 24.1578 78.2464C24.4351 77.9437 25.0221 78.0288 25.4527 78.4378C25.8868 78.8401 26.0193 79.4166 25.7272 79.7154H25.7268ZM29.4145 80.8134C29.2941 81.2047 28.7318 81.3828 28.1655 81.2165C27.6001 81.0451 27.2299 80.5863 27.344 80.1907C27.4616 79.7965 28.0263 79.6111 28.5969 79.7891C29.1616 79.9597 29.5326 80.415 29.4149 80.8134H29.4145ZM33.612 81.2788C33.6261 81.6914 33.1458 82.0333 32.5513 82.0408C31.9533 82.0537 31.4697 81.72 31.4635 81.3145C31.4635 80.8981 31.9329 80.5593 32.5305 80.5495C33.125 80.5377 33.612 80.8691 33.612 81.2788ZM37.735 81.1208C37.8064 81.5232 37.3931 81.9365 36.8029 82.0463C36.2225 82.1522 35.6853 81.9039 35.6112 81.5051C35.539 81.0926 35.9602 80.6797 36.5394 80.5726C37.1307 80.4699 37.6597 80.7118 37.735 81.1208Z" fill="white"/>
</svg>
