<svg width="20" height="20" viewBox="0 0 20 20" fill="none" xmlns="http://www.w3.org/2000/svg">
<g clip-path="url(#clip0_46010_514)">
<path fill-rule="evenodd" clip-rule="evenodd" d="M10.1234 0.0390625C4.67205 0.0390625 0.256714 4.4544 0.256714 9.90573C0.256714 14.2717 3.08105 17.9594 7.00305 19.2667C7.49638 19.3531 7.68138 19.0571 7.68138 18.7981C7.68138 18.5637 7.66905 17.7867 7.66905 16.9604C5.19005 17.4167 4.54871 16.3561 4.35138 15.8011C4.24038 15.5174 3.75938 14.6417 3.34005 14.4074C2.99471 14.2224 2.50138 13.7661 3.32771 13.7537C4.10471 13.7414 4.65971 14.4691 4.84471 14.7651C5.73271 16.2574 7.15105 15.8381 7.71838 15.5791C7.80471 14.9377 8.06371 14.5061 8.34738 14.2594C6.15205 14.0127 3.85805 13.1617 3.85805 9.38773C3.85805 8.31473 4.24038 7.42673 4.86938 6.73606C4.77071 6.4894 4.42538 5.47806 4.96805 4.1214C4.96805 4.1214 5.79438 3.8624 7.68138 5.13273C8.47071 4.91073 9.30938 4.79973 10.148 4.79973C10.9867 4.79973 11.8254 4.91073 12.6147 5.13273C14.5017 3.85006 15.328 4.1214 15.328 4.1214C15.8707 5.47806 15.5254 6.4894 15.4267 6.73606C16.0557 7.42673 16.438 8.30239 16.438 9.38773C16.438 13.1741 14.1317 14.0127 11.9364 14.2594C12.294 14.5677 12.6024 15.1597 12.6024 16.0847C12.6024 17.4044 12.59 18.4651 12.59 18.7981C12.59 19.0571 12.775 19.3654 13.2684 19.2667C15.2271 18.6054 16.9291 17.3466 18.1348 15.6673C19.3406 13.9881 19.9895 11.973 19.99 9.90573C19.99 4.4544 15.5747 0.0390625 10.1234 0.0390625Z" fill="black"/>
</g>
<defs>
<clipPath id="clip0_46010_514">
<rect width="19.7333" height="19.7333" fill="white" transform="translate(0.256714 0.0390625)"/>
</clipPath>
</defs>
</svg>
