<svg width="100" height="100" viewBox="0 0 100 100" fill="none" xmlns="http://www.w3.org/2000/svg">
<path d="M100.006 0H0.00585938V100H100.006V0Z" fill="#F7DF1E"/>
<path d="M67.1804 78.1254C69.1947 81.4143 71.8153 83.8318 76.4502 83.8318C80.3439 83.8318 82.8312 81.8857 82.8312 79.1969C82.8312 75.9746 80.2756 74.8334 75.9899 72.9588L73.6407 71.9508C66.8597 69.0619 62.355 65.4429 62.355 57.7921C62.355 50.7445 67.7248 45.3794 76.1169 45.3794C82.0915 45.3794 86.3867 47.4588 89.482 52.9032L82.1645 57.6016C80.5534 54.7127 78.8153 53.5746 76.1169 53.5746C73.3645 53.5746 71.6201 55.3207 71.6201 57.6016C71.6201 60.4207 73.3661 61.5619 77.3978 63.308L79.747 64.3143C87.7312 67.7381 92.2391 71.2286 92.2391 79.0762C92.2391 87.5365 85.5931 92.1715 76.6677 92.1715C67.9407 92.1715 62.3026 88.0127 59.5439 82.5619L67.1804 78.1254ZM33.9851 78.9397C35.4613 81.5588 36.8042 83.773 40.0328 83.773C43.1201 83.773 45.0677 82.5651 45.0677 77.8683V45.9159H54.4645V77.9953C54.4645 87.7254 48.7597 92.154 40.4328 92.154C32.909 92.154 28.5518 88.2603 26.3359 83.5707L33.9851 78.9397Z" fill="black"/>
</svg>
