<svg width="21" height="20" viewBox="0 0 21 20" fill="none" xmlns="http://www.w3.org/2000/svg">
<path d="M11.7362 8.63611C11.0627 7.9629 10.1494 7.58472 9.19714 7.58472C8.24488 7.58472 7.33161 7.9629 6.65812 8.63611L4.11827 11.1751C3.44477 11.8486 3.06641 12.7621 3.06641 13.7146C3.06641 14.667 3.44477 15.5805 4.11827 16.254C4.79177 16.9275 5.70523 17.3059 6.65771 17.3059C7.61018 17.3059 8.52364 16.9275 9.19714 16.254L10.4667 14.9845" stroke="black" stroke-width="1.66667" stroke-linecap="round" stroke-linejoin="round"/>
<path d="M9.19714 11.1751C9.87063 11.8483 10.7839 12.2265 11.7362 12.2265C12.6884 12.2265 13.6017 11.8483 14.2752 11.1751L16.815 8.63611C17.4885 7.96261 17.8669 7.04914 17.8669 6.09667C17.8669 5.1442 17.4885 4.23074 16.815 3.55724C16.1415 2.88374 15.2281 2.50537 14.2756 2.50537C13.3231 2.50537 12.4097 2.88374 11.7362 3.55724L10.4667 4.82675" stroke="black" stroke-width="1.66667" stroke-linecap="round" stroke-linejoin="round"/>
</svg>
