<svg width="101" height="52" viewBox="0 0 101 52" fill="none" xmlns="http://www.w3.org/2000/svg">
<path fill-rule="evenodd" clip-rule="evenodd" d="M50.1807 51.3387C77.795 51.3387 100.181 39.9937 100.181 26C100.181 12.0063 77.795 0.661377 50.1807 0.661377C22.5669 0.661377 0.180664 12.0063 0.180664 26C0.180664 39.9937 22.5669 51.3387 50.1807 51.3387Z" fill="#6E81B6"/>
<path fill-rule="evenodd" clip-rule="evenodd" d="M60.3139 34.1898L62.794 21.4253C63.3539 18.5443 62.8884 16.3955 61.4113 15.0376C59.9802 13.7238 57.5509 13.0847 53.9849 13.0847H49.6897L50.9183 6.76045C50.9413 6.64275 50.938 6.52141 50.9086 6.40514C50.8792 6.28887 50.8244 6.18055 50.7481 6.08796C50.6719 5.99537 50.5761 5.9208 50.4677 5.86961C50.3592 5.81842 50.2407 5.79187 50.1208 5.79187H44.1926C43.8032 5.79187 43.4689 6.06818 43.3945 6.45029L40.7602 20.0014C40.5208 18.4766 39.9307 17.1658 38.9863 16.0841C37.2475 14.0938 34.4971 13.0847 30.8108 13.0847H19.3208C18.9314 13.0847 18.5971 13.361 18.5227 13.7425L13.1919 41.1725C13.1453 41.4113 13.2076 41.6567 13.3624 41.8442C13.5165 42.0322 13.7463 42.1404 13.9899 42.1404H19.9647C20.3541 42.1404 20.6884 41.8641 20.7628 41.4814L22.0524 34.847H26.4999C28.8337 34.847 30.7951 34.5943 32.3259 34.0961C33.8913 33.587 35.3321 32.7236 36.6017 31.535C37.6278 30.5924 38.4754 29.5367 39.1278 28.3982L38.0631 33.8784C38.0165 34.1173 38.0788 34.3639 38.2336 34.5502C38.3878 34.7382 38.6181 34.8464 38.8612 34.8464H44.7894C45.1787 34.8464 45.5131 34.5701 45.5874 34.1886L48.5132 19.132H52.581C54.3144 19.132 54.8223 19.4772 54.9607 19.6254C55.0859 19.7608 55.3459 20.2378 55.0538 21.7415L52.6958 33.8778C52.6733 33.9955 52.6769 34.1167 52.7065 34.2328C52.7362 34.3489 52.791 34.457 52.8673 34.5495C52.9435 34.6419 53.0392 34.7164 53.1475 34.7676C53.2558 34.8189 53.3741 34.8456 53.4939 34.8458H59.5164C59.7049 34.8462 59.8876 34.7809 60.0331 34.6612C60.1787 34.5415 60.278 34.3748 60.3139 34.1898ZM32.8296 23.643C32.4571 25.5566 31.7558 26.9212 30.7437 27.6993C29.7158 28.492 28.0719 28.8934 25.8572 28.8934H23.209L25.1238 19.0395H28.5477C31.0629 19.0395 32.0762 19.577 32.4831 20.0274C33.0472 20.6526 33.167 21.9035 32.8296 23.643ZM85.2849 16.0841C83.5467 14.0938 80.7963 13.0847 77.11 13.0847H65.62C65.23 13.0847 64.8963 13.361 64.8219 13.7425L59.4917 41.1725C59.4445 41.4113 59.5068 41.6567 59.6616 41.8442C59.8163 42.0316 60.0467 42.1404 60.2885 42.1404H66.2639C66.6539 42.1404 66.9876 41.8641 67.062 41.4814L68.3516 34.847H72.7997C75.1341 34.847 77.0937 34.5943 78.6251 34.0961C80.1911 33.587 81.6319 32.7236 82.9009 31.535C83.9602 30.5621 84.8315 29.4684 85.4917 28.2876C86.1519 27.1068 86.6253 25.79 86.9016 24.3727C87.5806 20.8775 87.0371 18.089 85.2849 16.0841ZM79.468 23.643C79.0949 25.5566 78.3936 26.9212 77.3827 27.6993C76.3542 28.492 74.7103 28.8934 72.4962 28.8934H69.8474L71.7616 19.0395H75.1861C77.7013 19.0395 78.7146 19.577 79.1221 20.0274C79.685 20.6526 79.8053 21.9035 79.468 23.643Z" fill="white"/>
<path fill-rule="evenodd" clip-rule="evenodd" d="M28.3775 18.2264C30.6472 18.2264 32.1606 18.6454 32.9169 19.4834C33.6727 20.3214 33.8529 21.7604 33.4575 23.7985C33.0439 25.9213 32.2482 27.4364 31.0693 28.3445C29.8903 29.2527 28.0958 29.7061 25.687 29.7061H22.0521L24.2831 18.2264H28.3775ZM13.8191 41.3273H19.7939L21.2117 34.0351H26.3297C28.5879 34.0351 30.4459 33.7975 31.9042 33.3229C33.3625 32.8483 34.6885 32.0532 35.8814 30.9365C36.8826 30.0169 37.6928 29.0011 38.3131 27.8911C38.9328 26.781 39.373 25.5567 39.6336 24.2175C40.266 20.9659 39.789 18.4332 38.2037 16.6194C36.619 14.8049 34.0971 13.898 30.6406 13.898H19.1506L13.8191 41.3273ZM44.0218 6.60522H49.9501L48.5328 13.898H53.8147C57.1365 13.898 59.4297 14.4772 60.691 15.6363C61.9522 16.7953 62.3301 18.6738 61.8258 21.2706L59.3457 34.0351H53.3232L55.6812 21.8982C55.949 20.5173 55.8511 19.5759 55.3849 19.0735C54.9187 18.5716 53.9266 18.3201 52.4102 18.3201H47.6725L44.6186 34.0351H38.6904L44.0218 6.60522ZM75.016 18.2264C77.2857 18.2264 78.7985 18.6454 79.5554 19.4834C80.3112 20.3214 80.4908 21.7604 80.0954 23.7985C79.683 25.9213 78.8873 27.4364 77.7077 28.3445C76.5294 29.2527 74.7343 29.7061 72.3267 29.7061H68.6918L70.9222 18.2264H75.016ZM60.4564 41.3273H66.4317L67.849 34.0351H72.967C75.2258 34.0351 77.0838 33.7975 78.5421 33.3229C80.0004 32.8483 81.3263 32.0532 82.5192 30.9365C83.5205 30.0169 84.3307 29.0011 84.9504 27.8911C85.5701 26.781 86.0109 25.5567 86.2721 24.2175C86.9039 20.9659 86.4268 18.4332 84.8422 16.6194C83.2563 14.8049 80.735 13.898 77.2785 13.898H65.7884L60.4564 41.3273Z" fill="black"/>
</svg>
