<svg width="101" height="100" viewBox="0 0 101 100" fill="none" xmlns="http://www.w3.org/2000/svg">
<path d="M50.4874 58.8163C55.3564 58.8163 59.3036 54.8691 59.3036 50.0001C59.3036 45.131 55.3564 41.1838 50.4874 41.1838C45.6183 41.1838 41.6711 45.131 41.6711 50.0001C41.6711 54.8691 45.6183 58.8163 50.4874 58.8163Z" fill="#61DAFB"/>
<path d="M50.4873 68.0626C76.614 68.0626 97.7939 59.9757 97.7939 50C97.7939 40.0244 76.614 31.9375 50.4873 31.9375C24.3606 31.9375 3.18066 40.0244 3.18066 50C3.18066 59.9757 24.3606 68.0626 50.4873 68.0626Z" stroke="#61DAFB" stroke-width="5"/>
<path d="M34.8447 59.0313C47.908 81.6577 65.5014 95.9566 74.1406 90.9687C82.7797 85.9809 79.1932 63.5951 66.1299 40.9687C53.0665 18.3423 35.4731 4.04343 26.834 9.03126C18.1948 14.0191 21.7813 36.4049 34.8447 59.0313Z" stroke="#61DAFB" stroke-width="5"/>
<path d="M34.8447 40.9687C21.7813 63.5951 18.1948 85.9809 26.834 90.9687C35.4732 95.9565 53.0665 81.6576 66.1299 59.0312C79.1933 36.4048 82.7798 14.0191 74.1406 9.03124C65.5014 4.04341 47.908 18.3423 34.8447 40.9687Z" stroke="#61DAFB" stroke-width="5"/>
</svg>
