<svg width="100" height="100" viewBox="0 0 100 100" fill="none" xmlns="http://www.w3.org/2000/svg">
<path d="M0.951416 35.0335C0.951416 35.0335 -1.48421 33.2778 1.43854 30.9335L8.24814 24.8445C8.24814 24.8445 10.1966 22.7945 12.2568 24.5806L75.0959 72.1565V94.9702C75.0959 94.9702 75.0655 98.5527 70.4682 98.1569L0.951416 35.0335Z" fill="#2489CA"/>
<path d="M17.1483 49.7388L0.951379 64.4641C0.951379 64.4641 -0.712967 65.7023 0.951379 67.9146L8.47138 74.7547C8.47138 74.7547 10.2575 76.6727 12.8961 74.4908L30.0673 61.4704L17.1483 49.7388Z" fill="#1070B3"/>
<path d="M45.5844 49.8605L75.2889 27.1786L75.0961 4.48665C75.0961 4.48665 73.8275 -0.465803 69.5956 2.11191L30.0674 38.0882L45.5844 49.8605Z" fill="#0877B9"/>
<path d="M70.4685 98.1875C72.1937 99.9533 74.2843 99.3749 74.2843 99.3749L97.4329 87.968C100.396 85.9485 99.9801 83.4418 99.9801 83.4418V15.3254C99.9801 12.3316 96.9153 11.2964 96.9153 11.2964L76.8518 1.62494C72.4677 -1.0847 69.5957 2.11207 69.5957 2.11207C69.5957 2.11207 73.2897 -0.54683 75.0962 4.48681V94.5544C75.0962 95.1734 74.9642 95.7823 74.7004 96.3304C74.1726 97.3959 73.0259 98.3905 70.2756 97.9744L70.4685 98.1875Z" fill="#3C99D4"/>
</svg>
