<svg width="100" height="100" viewBox="0 0 100 100" fill="none" xmlns="http://www.w3.org/2000/svg">
<path d="M7.10743 49.9987C7.10743 66.9776 16.9741 81.6491 31.2817 88.6029L10.821 32.5424C8.36825 38.0349 7.10279 43.9834 7.10743 49.9987ZM78.9568 47.8342C78.9568 42.5332 77.0526 38.862 75.4195 36.0046C73.2452 32.4714 71.208 29.4793 71.208 25.9461C71.208 22.0032 74.1977 18.3328 78.4099 18.3328C78.6001 18.3328 78.7805 18.3565 78.9666 18.3671C71.3345 11.3758 61.1675 7.10718 50.0006 7.10718C35.0157 7.10718 21.832 14.7955 14.1624 26.4407C15.1688 26.4709 16.118 26.4913 16.9227 26.4913C21.4092 26.4913 28.3541 25.9469 28.3541 25.9469C30.6663 25.8106 30.9389 29.2067 28.6299 29.4801C28.6299 29.4801 26.3055 29.7535 23.7198 29.889L39.3397 76.3497L48.7274 48.1974L42.0437 29.8882C39.734 29.7527 37.5458 29.4793 37.5458 29.4793C35.2344 29.3438 35.5054 25.8098 37.8168 25.9461C37.8168 25.9461 44.9003 26.4905 49.115 26.4905C53.6007 26.4905 60.5464 25.9461 60.5464 25.9461C62.8602 25.8098 63.132 29.2059 60.8214 29.4793C60.8214 29.4793 58.4929 29.7527 55.9121 29.8882L71.4129 75.9971L75.6905 61.7002C77.5456 55.7674 78.9568 51.5062 78.9568 47.8342Z" fill="#207196"/>
<path d="M50.753 53.7507L37.8835 91.1461C41.8181 92.3056 45.8986 92.8944 50.0005 92.8944C54.9955 92.8944 59.7856 92.03 64.2443 90.463C64.1247 90.2757 64.0226 90.0779 63.9391 89.8721L50.753 53.7507ZM87.6375 29.4198C87.822 30.7861 87.9265 32.2536 87.9265 33.8304C87.9265 38.183 87.1135 43.076 84.665 49.194L71.563 87.075C84.3149 79.6389 92.8921 65.8235 92.8921 49.9988C92.9035 42.8058 91.096 35.7268 87.6375 29.4198Z" fill="#207196"/>
<path d="M50.0005 0C22.4309 0 0 22.4292 0 49.9987C0 77.5715 22.4301 100.001 50.0005 100.001C77.5692 100.001 100.003 77.5723 100.003 49.9987C100.003 22.4292 77.5692 0 50.0005 0ZM50.0005 97.7081C23.6952 97.7081 2.29263 76.3056 2.29263 49.9987C2.29263 23.6943 23.6944 2.29345 50.0005 2.29345C76.305 2.29345 97.7059 23.6943 97.7059 49.9987C97.7059 76.3056 76.3041 97.7081 50.0005 97.7081Z" fill="#207196"/>
</svg>
